<svg xmlns="http://www.w3.org/2000/svg" xmlns:xlink="http://www.w3.org/1999/xlink" version="1.1" x="0px" y="0px" viewBox="0 0 32 40" style="enable-background:new 0 0 32 32;"  xml:space="preserve"><path fill="#ff006e" d="M11.4306173,23.1640625c-0.6914062,0.3076172-1.71875,1.3808594-1.7666016,2.5175781  c-0.0224609,0.5341797,0.1591797,1.2861328,1.1523438,1.8330078c0.0008545,0.0004883,0.0018921,0.0002441,0.0027466,0.0007324  c0.6741943,0.3840332,1.3722534,0.7459106,2.069519,1.1066895c0.6914062,0.3574219,1.3818359,0.7138672,2.0322266,1.0849609  c0.2607422,0.1630859,0.5722656,0.2919922,0.9091797,0.2919922c0.4511709,0,0.9462881-0.234375,1.4160147-0.9375  c0.0380859-0.0634766,0.0810547-0.1289062,0.1259766-0.1953125c0.2783203-0.4150391,0.8554688-1.2792969-0.0371094-2.1699219  c-0.3903198-0.3345337-0.8764038-0.6898193-1.404357-1.0474243c1.6060781-0.5373535,3.3635244-1.2999268,5.1533804-2.2592163  c0.0198364-0.0106201,0.0321655-0.0284424,0.0499878-0.0412598c0.0220947-0.0158081,0.0473633-0.0248413,0.0671997-0.0446777  c0.0072021-0.0071411,0.0094604-0.0167847,0.0161133-0.024231c0.0217896-0.0244141,0.0366821-0.0518188,0.0531006-0.0796509  c0.0169067-0.0286865,0.0349121-0.0556641,0.0455933-0.0865479c0.0089111-0.0254517,0.0114136-0.0512695,0.0161743-0.0778198  c0.0039673-0.0150146,0.0129395-0.027771,0.0155029-0.0432739c0.1875-1.1298828,0.3818359-2.296875,0.4775391-3.4560547  c0.0009766-0.0136719,0.0087891-0.1230469,0.0087891-0.1367188c0.0390625-0.4130859-0.0253906-0.8457031-0.7578125-1.2128906  c-1.9549561-1.0057983-3.8917236-1.980896-5.8354483-2.9480591c1.2775259-0.3984375,2.8621817-0.9307861,3.9682608-1.3258667  c0.65625-0.2626953,1.1279297-0.809082,1.2617188-1.4614258c0.0453491-0.2219238,0.034668-0.4417114-0.0022583-0.6566772  c0.0039062-0.0252686,0.0149536-0.0479126,0.0149536-0.0742798V8.7446289c0-0.3779297-0.0820312-1.6591797-1.1367188-2.2792969  c-1.0546875-0.6323242-2.8056641-1.8398438-4.2138662-2.8095703c-1.3525391-0.9321289-2.1308594-1.4663086-2.4052734-1.6035156  c-0.2158203-0.1074219-0.4833984-0.0454102-0.6279297,0.1533203C11.440383,3.1123047,10.752883,4.159668,10.949172,5.1157227  c0.0897827,0.4376831,0.3526611,0.7908936,0.7747192,1.0550537c0.0037842,0.0028076,0.0055542,0.0072021,0.0094604,0.0098877  c0.2724609,0.1879883,0.7314453,0.4956055,1.2949219,0.8730469c1.1726685,0.7852783,2.9758291,1.9926758,4.3709097,2.9954224  c-2.7349234,0.8286133-3.4024038,1.0731201-3.8123159,1.2233276c-0.15625,0.0576172-0.2753906,0.1015625-0.4707031,0.1621094  c-2.9023438,0.9033203-3.2548828,1.9838867-2.8310547,4.8212891l0.0244141,0.1015625  c0.1015625,0.4404297,0.2226562,0.7646484,0.9521484,1.25c0.4580078,0.3037109,1.7568359,1.0830078,3.2597656,1.984375  c0.6557007,0.3931885,1.4091797,0.8452148,2.1559439,1.2963257l-0.2086792,0.0874634  C14.7948751,21.6757812,12.8993673,22.4677734,11.4306173,23.1640625z M16.5409679,28.3105469  c-0.0537109,0.0810547-0.1064453,0.1591797-0.1396484,0.2158203c-0.3740234,0.5625-0.5869131,0.5585938-0.9677725,0.3222656  c-0.6787109-0.3876953-1.3818359-0.7509766-2.0849609-1.1152344c-0.6884766-0.3554688-1.3769531-0.7119141-2.0419922-1.0917969  c-0.0016479-0.0009155-0.0036011-0.0007935-0.005249-0.001709c-0.0010376-0.0005493-0.0015259-0.0016479-0.0025635-0.0021973  c-0.6591797-0.3623047-0.6416016-0.7773438-0.6357422-0.9140625c0.0263062-0.6070557,0.5997314-1.2695923,1.0106812-1.5496826  c0.2999878,0.1865234,0.6347656,0.3898926,1.006897,0.6141357c1.3486328,0.8154297,3.0273438,1.8310547,3.975585,2.6416016  C16.9003429,27.6738281,16.8837414,27.796875,16.5409679,28.3105469z M12.3036642,5.3583984  c-0.0055542-0.0038452-0.012207-0.0040894-0.0178223-0.0076294c-0.0045166-0.0028687-0.0068359-0.0076904-0.0114746-0.010437  c-0.2636719-0.1582031-0.3232422-0.3183594-0.3457031-0.4248047c-0.0976562-0.4770508,0.3447266-1.2148438,0.7119141-1.7470703  c0.4453125,0.2910156,1.1943359,0.8071289,1.9248047,1.3105469c1.4189453,0.9780273,3.1855459,2.1953125,4.2705069,2.8461914  c0.6162109,0.3623047,0.6474609,1.2460938,0.6474609,1.4194336v1.630127c-1.1569214-0.958252-3.526-2.5629883-5.8984365-4.1516113  C13.0263205,5.8491211,12.5722189,5.5449219,12.3036642,5.3583984z M13.4130392,12.3896484  c0.2158203-0.0668945,0.3457031-0.1147461,0.5185547-0.1782227c0.4329224-0.1591187,1.1590576-0.4249268,4.4697866-1.4200439  c0.3696289,0.2843018,0.6672363,0.529541,0.8446655,0.7071533c0.2734375,0.2739258,0.2841797,0.5595703,0.2451172,0.7514648  c-0.0654297,0.3173828-0.3154297,0.5986328-0.6357422,0.7275391c-1.3736572,0.4900513-3.6379995,1.2418213-4.9301748,1.6124878  c-0.8113403-0.4006958-1.6185913-0.8026733-2.4401245-1.2028198C11.8187399,12.9877319,12.405654,12.703064,13.4130392,12.3896484z   M11.8144064,16.7739258c-0.4521484-0.300293-0.4736328-0.3930664-0.5302734-0.6411133l-0.0195312-0.0712891  c-0.1095581-0.7377319-0.1604614-1.2849731-0.1264038-1.7302856c3.2012939,1.5599976,6.3121939,3.1141357,9.4848013,4.7468872  c0.1582031,0.0791016,0.2138672,0.1328125,0.2216797,0.1328125c0.0009766,0.0195312-0.0029297,0.0615234-0.0058594,0.09375  c-0.0068359,0.0625-0.0117188,0.1259766-0.0097656,0.1494141c-0.0718994,0.8659668-0.2064209,1.7461548-0.34729,2.6166992  c-0.5310059-0.3521729-1.3273315-0.8474121-2.3380737-1.4626465c-0.0524902-0.0514526-0.1157227-0.0874634-0.1838379-0.1116943  c-0.8453369-0.5136108-1.8171997-1.0983276-2.9237661-1.762085C13.542922,17.8388672,12.2538595,17.0654297,11.8144064,16.7739258z   M19.8904552,22.8752441c-1.7736816,0.9039307-3.5014648,1.6234131-5.0330801,2.0753174  c-0.5647583-0.3557739-1.1361694-0.7014771-1.6591797-1.0179443c-0.1578369-0.0952759-0.3030396-0.1834717-0.449707-0.272522  c1.289978-0.5820923,2.7646484-1.2008667,4.1059561-1.7616577l0.8803711-0.3688354  C18.6003551,22.057312,19.3768444,22.5388794,19.8904552,22.8752441z"/><path d="M26.3163586,14.7124023c1.0722656,0,2.2294922-0.7827148,2.2294922-2.0478516  c0-0.5615234-0.1943359-1.0517578-0.5625-1.4179688c-0.3935547-0.3911133-0.9433594-0.6220703-1.5712891-0.6025391  c-0.7109375,0.003418-1.1279297,0.2910156-1.3525391,0.5322266c-0.3730469,0.3999023-0.5371094,0.9814453-0.4882812,1.7290039  C24.6474133,14.0537109,25.2831554,14.7124023,26.3163586,14.7124023z M25.7909679,11.8579102  c0.1328125-0.1425781,0.3369141-0.2124023,0.625-0.2138672c0.0029297,0,0.0048828,0,0.0078125,0  c0.3496094,0,0.6523438,0.1103516,0.8544922,0.3110352c0.1777344,0.1767578,0.2675781,0.4155273,0.2675781,0.7094727  c0,0.7148438-0.7333984,1.0478516-1.2294922,1.0478516c-0.3339844,0-0.6933594-0.0673828-0.7470703-0.8730469  C25.5390148,12.3847656,25.6161633,12.0454102,25.7909679,11.8579102z"/><path d="M6.2265158,20.8359375c-0.5380859-0.1533203-1.0634766-0.1005859-1.515625,0.1523438  c-0.484375,0.2714844-0.8427737,0.7509766-1.0097659,1.3496094c-0.1914062,0.6855469-0.0283203,1.1650391,0.1416016,1.4472656  c0.2822268,0.4677734,0.7968752,0.7841797,1.5292971,0.9423828c0.2041016,0.0439453,0.3984375,0.0654297,0.5800781,0.0654297  c0.8193359,0,1.4023438-0.4375,1.6337891-1.2509766C7.877883,22.5097656,7.4423361,21.1816406,6.2265158,20.8359375z   M6.6239767,23.2685547c-0.0917969,0.3212891-0.2568359,0.6542969-1.0419922,0.4804688  c-0.4453125-0.0957031-0.7509766-0.2617188-0.8837891-0.4804688c-0.1005859-0.1669922-0.1113281-0.3837891-0.0341797-0.6621094  c0.0947266-0.3408203,0.2851562-0.6054688,0.5361328-0.7460938C5.3319845,21.7871094,5.4765158,21.75,5.6327658,21.75  c0.1015625,0,0.2089844,0.015625,0.3203125,0.046875C6.6396017,21.9931641,6.7587423,22.7910156,6.6239767,23.2685547z"/><path d="M5.5956564,11.5961914c0.1933594,0,0.3925781-0.0302734,0.5947266-0.0957031  c0.5341797-0.1728516,0.9404297-0.5092773,1.1748047-0.9716797c0.2509766-0.4951172,0.2822266-1.0927734,0.0878906-1.6831055  C7.2313986,8.1699219,6.8290548,7.8618164,6.5302267,7.722168C6.0370626,7.4916992,5.433547,7.5141602,4.7382345,7.7910156  c-1.0683596,0.425293-1.4990237,1.2333984-1.1816409,2.2177734C3.8319843,10.8579102,4.6405783,11.5961914,5.5956564,11.5961914z   M5.1073751,8.7197266c0.2587891-0.1025391,0.4882812-0.1542969,0.6806641-0.1542969  c0.1220703,0,0.2294922,0.0205078,0.3193359,0.0625C6.284133,8.7109375,6.4130392,8.8842773,6.5038595,9.1582031  c0.1103516,0.3359375,0.0996094,0.6616211-0.0302734,0.9179688c-0.1132812,0.2231445-0.3125,0.3823242-0.5917969,0.4731445  c-0.6796875,0.2192383-1.2207031-0.3769531-1.3740234-0.8486328C4.4052267,9.3828125,4.3583517,9.0180664,5.1073751,8.7197266z"/></svg>